<?xml version="1.0" encoding="UTF-8"?><svg xmlns="http://www.w3.org/2000/svg" viewBox="0 0 596.38 158.5"><g id="a"/><g id="b"><g id="c"><g><g><path d="M207.44,109.01V53.99h11.12v21.66h21.79v-21.66h11.12v55.02h-11.12v-24.06h-21.79v24.06h-11.12Z"/><path d="M340.39,109.01v-23.16l-20.18-31.87h13.04l12.96,21.77,12.7-21.77h12.81l-20.25,31.94v23.08h-11.08Z"/><path d="M454.25,109.01l-19.69-55.02h12.06l13.94,40.72,13.49-40.72h11.8l-19.73,55.02h-11.87Z"/><path d="M554.48,109.01V53.99h40.84v9.31h-29.72v12.2h27.66v9.27h-27.66v14.98h30.77v9.27h-41.9Z"/></g><g><path d="M45.5,88.07H8.79c-4.85,0-8.79-3.97-8.79-8.82s3.94-8.82,8.79-8.82H45.5c-1.99,5.72-1.99,11.92,0,17.64Z"/><path d="M70.39,61.65c9.74,0,17.62,7.87,17.62,17.6s-7.87,17.6-17.62,17.6-17.58-7.87-17.58-17.6,7.87-17.6,17.58-17.6Z"/><path d="M85.62,8.82h-30.46C58.3,3.37,64.11,.04,70.39,0c6.28,.04,12.09,3.37,15.23,8.82Z"/><path d="M55.48,149.68h30.7c-3.18,5.44-9.03,8.82-15.35,8.82s-12.17-3.37-15.35-8.82Z"/><path d="M131.99,105.66c0,4.85-3.93,8.82-8.79,8.82h-17.62c-2.43,0-4.37,1.95-4.37,4.37s1.95,4.41,4.37,4.41c4.89,0,8.83,3.93,8.83,8.82s-3.94,8.78-8.83,8.78H35.2c-4.85,0-8.79-3.93-8.79-8.78s3.94-8.82,8.79-8.82h43.98c2.47,0,4.41-1.95,4.41-4.41s-1.95-4.37-4.41-4.37H17.58c-3.14,0-6.05-1.71-7.6-4.41-1.59-2.74-1.59-6.08,0-8.82,1.55-2.7,4.46-4.41,7.6-4.41H50.71c5.01,5.6,12.17,8.82,19.69,8.82s14.68-3.22,19.69-8.82h33.13c4.85,0,8.79,3.93,8.79,8.82Z"/><path d="M8.79,52.83c0-4.85,3.94-8.78,8.79-8.78h17.62c2.43,0,4.41-1.98,4.41-4.41s-1.99-4.41-4.41-4.41c-4.85,0-8.79-3.93-8.79-8.82s3.94-8.78,8.79-8.78H105.59c4.89,0,8.83,3.93,8.83,8.78s-3.94,8.82-8.83,8.82H61.6c-2.43,0-4.41,1.99-4.41,4.41s1.99,4.41,4.41,4.41h61.6c4.85,0,8.79,3.93,8.79,8.78s-3.93,8.82-8.79,8.82h-33.13c-5.01-5.6-12.17-8.82-19.69-8.82s-14.68,3.22-19.69,8.82H17.58c-4.85,0-8.79-3.93-8.79-8.82Z"/><path d="M140.82,79.25c0,4.85-3.94,8.82-8.83,8.82h-36.71c2.03-5.72,2.03-11.92,0-17.64h36.71c4.89,0,8.83,3.97,8.83,8.82Z"/></g></g></g></g></svg>