<svg width="56" height="57" xmlns="http://www.w3.org/2000/svg" xmlns:xlink="http://www.w3.org/1999/xlink" xml:space="preserve" overflow="hidden"><defs><clipPath id="clip0"><rect x="535" y="541" width="56" height="57"/></clipPath><linearGradient x1="11.917" y1="50.3713" x2="51.5149" y2="10.7733" gradientUnits="userSpaceOnUse" spreadMethod="pad" id="fill1"><stop offset="0" stop-color="#FFE785"/><stop offset="0.3" stop-color="#FF868F"/><stop offset="0.45" stop-color="#FF71C4"/><stop offset="0.55" stop-color="#AE6ED1"/><stop offset="0.7" stop-color="#8589F4"/><stop offset="0.85" stop-color="#0095EF"/><stop offset="1" stop-color="#29ABE2"/></linearGradient><linearGradient x1="5.35865" y1="57.0151" x2="58.2437" y2="4.12953" gradientUnits="userSpaceOnUse" spreadMethod="pad" id="fill2"><stop offset="0" stop-color="#FFE785"/><stop offset="0.3" stop-color="#FF868F"/><stop offset="0.45" stop-color="#FF71C4"/><stop offset="0.55" stop-color="#AE6ED1"/><stop offset="0.7" stop-color="#8589F4"/><stop offset="0.85" stop-color="#0095EF"/><stop offset="1" stop-color="#29ABE2"/></linearGradient></defs><g clip-path="url(#clip0)" transform="translate(-535 -541)"><path d="M52.9688 12.3422 52.7656 12.1095C52.6665 11.9962 52.5668 11.883 52.4649 11.7737 52.3879 11.6894 52.3115 11.6039 52.2328 11.5212 52.1898 11.4741 52.1456 11.4271 52.1003 11.3803 52.0918 11.3701 52.0822 11.3593 52.0732 11.3503 51.9945 11.2665 51.9146 11.1838 51.8348 11.1017 51.7284 10.9911 51.621 10.8817 51.5127 10.7733 51.4043 10.665 51.2949 10.5576 51.1843 10.4512 51.1022 10.3714 51.0195 10.2915 50.9357 10.2129 50.9267 10.2038 50.9159 10.1942 50.9057 10.1857 50.8586 10.1404 50.8116 10.0962 50.7648 10.0532 50.6815 9.9745 50.5949 9.89807 50.5123 9.82108 50.399 9.71917 50.2892 9.61952 50.1765 9.52045L49.9455 9.31946C44.8728 4.95328 38.4764 2.5726 31.7154 2.5726 24.2359 2.5726 17.2049 5.4849 11.9164 10.7733 6.62797 16.0618 3.71624 23.0929 3.71624 30.5723 3.71624 37.335 6.09691 43.7314 10.4631 48.8025L10.6641 49.0335C10.7632 49.1467 10.8628 49.2599 10.9647 49.3692 11.0417 49.4536 11.1181 49.5391 11.1968 49.6217 11.2399 49.6689 11.284 49.7159 11.3293 49.7627 11.3378 49.7729 11.3474 49.7836 11.3565 49.7927 11.4352 49.8765 11.515 49.9591 11.5948 50.0412 11.7013 50.1518 11.8087 50.2613 11.917 50.3696 12.0253 50.4779 12.1348 50.5853 12.2453 50.6917 12.3274 50.7716 12.4101 50.8514 12.4939 50.9301 12.5029 50.9391 12.5137 50.9488 12.5239 50.9573 12.5707 51.0026 12.6177 51.0467 12.6649 51.0897 12.7481 51.1684 12.8347 51.2449 12.9174 51.3219 13.0306 51.4238 13.1404 51.5234 13.2531 51.6225L13.4841 51.8235C18.5568 56.1897 24.9532 58.5703 31.7143 58.5703 39.1937 58.5703 46.2248 55.658 51.5132 50.3696 56.8017 45.0812 59.7157 38.0518 59.7157 30.5723 59.7157 23.8096 57.335 17.4132 52.9688 12.3422ZM31.3848 54.2981C25.9438 54.2272 20.6943 52.2799 16.5232 48.7855 16.4326 48.7096 16.342 48.6326 16.2526 48.5556L16.2441 48.5488C16.1371 48.4566 16.0324 48.3643 15.927 48.2703L15.9067 48.2527C15.811 48.1673 15.7159 48.0829 15.6236 47.9946 15.4956 47.8757 15.3694 47.756 15.2448 47.6356 15.1446 47.54 15.0444 47.442 14.9465 47.3435 14.8485 47.245 14.75 47.1453 14.6543 47.0451 14.5339 46.9206 14.4143 46.7943 14.2954 46.6664 14.2093 46.5724 14.1227 46.4773 14.0372 46.3833L14.0197 46.3629C13.9257 46.2576 13.8334 46.1529 13.7411 46.0459 13.7392 46.0428 13.7369 46.04 13.7343 46.0374 13.6573 45.9474 13.5803 45.8573 13.5045 45.7668 9.93194 41.5027 7.97875 36.1147 7.989 30.5519 8.00089 17.6198 18.7635 6.85726 31.6956 6.84537 37.2576 6.83505 42.6449 8.78759 46.9087 12.3591 46.9993 12.435 47.0893 12.512 47.1793 12.589L47.1878 12.5958C47.2948 12.6881 47.3996 12.7804 47.5049 12.8743L47.5252 12.8919C47.6209 12.9774 47.716 13.0617 47.8083 13.1501 47.9363 13.269 48.0625 13.3886 48.1871 13.509 48.2873 13.6047 48.3875 13.7026 48.4854 13.8011 48.5834 13.8996 48.6819 13.9993 48.7776 14.0995 48.8984 14.2241 49.018 14.3503 49.1365 14.4783 49.2226 14.5722 49.3092 14.6674 49.3947 14.7613L49.4122 14.7817C49.5062 14.887 49.5985 14.9918 49.6908 15.0988 49.6927 15.1018 49.695 15.1047 49.6976 15.1073 49.7746 15.1967 49.8516 15.2873 49.9274 15.3779 53.4218 19.5489 55.3691 24.7985 55.4401 30.2394 55.6258 43.5576 44.7013 54.4821 31.3848 54.2981Z" fill="url(#fill1)" transform="matrix(1 0 0 1.01786 531.284 538.381)"/><path d="M11.425 53.9692 8.35417 57.0406C7.53414 57.8605 6.20472 57.8605 5.38469 57.0406L5.33317 56.9891C4.51324 56.169 4.51324 54.8396 5.33317 54.0196L8.40456 50.9488C9.22777 50.1292 10.5595 50.1322 11.379 50.9554 11.3802 50.9566 11.3814 50.9578 11.3825 50.959L11.3984 50.9748 11.4142 50.9907C12.2397 51.8079 12.2463 53.1396 11.4291 53.9651 11.4277 53.9665 11.4264 53.9678 11.425 53.9692ZM47.9833 14.4205 47.9533 14.3905C47.1203 13.5678 45.779 13.5731 44.9526 14.4024L15.6315 43.7212C14.8022 44.5476 14.7969 45.8889 15.6196 46.7219L15.6496 46.7519C16.4826 47.5746 17.8239 47.5693 18.6502 46.74L47.9714 17.4234C48.8019 16.5966 48.8072 15.2538 47.9833 14.4205ZM58.2697 4.15557 58.2182 4.10405C57.3982 3.28412 56.0687 3.28412 55.2487 4.10405L52.1779 7.17544C51.3584 7.99865 51.3613 9.33035 52.1845 10.1499 52.1857 10.1511 52.1869 10.1522 52.1881 10.1534L52.2198 10.1851C53.0371 11.0106 54.3688 11.0172 55.1942 10.2 55.1956 10.1986 55.197 10.1972 55.1983 10.1959L58.2697 7.12505C59.0896 6.30502 59.0896 4.9756 58.2697 4.15557Z" fill="url(#fill2)" transform="matrix(1 0 0 1.01786 531.284 538.381)"/></g></svg>