<svg id="b9afc9f9-22f0-4322-8ef7-bfb1c2a6535e" data-name="Layer 1" xmlns="http://www.w3.org/2000/svg" xmlns:xlink="http://www.w3.org/1999/xlink" viewBox="0 0 989.13 989.13"><defs><style>.acf8c111-6043-48b7-b32a-14b91e38c584{fill:url(#bdd02634-52ee-4deb-9da7-c4935e16972d);}.bfa78376-a4ad-456d-b6c9-b6b39ec13357{fill:url(#ba913b13-b7e3-4e3a-b2b3-84dc3a8bcd3f);}</style><linearGradient id="bdd02634-52ee-4deb-9da7-c4935e16972d" x1="210.49" y1="889.71" x2="909.91" y2="190.29" gradientUnits="userSpaceOnUse"><stop offset="0" stop-color="#ffe785"/><stop offset="0.3" stop-color="#ff868f"/><stop offset="0.45" stop-color="#ff71c4"/><stop offset="0.55" stop-color="#ae6ed1"/><stop offset="0.7" stop-color="#8589f4"/><stop offset="0.85" stop-color="#0095ef"/><stop offset="1" stop-color="#29abe2"/></linearGradient><linearGradient id="ba913b13-b7e3-4e3a-b2b3-84dc3a8bcd3f" x1="94.65" y1="1007.06" x2="1028.76" y2="72.94" xlink:href="#bdd02634-52ee-4deb-9da7-c4935e16972d"/></defs><path class="acf8c111-6043-48b7-b32a-14b91e38c584" d="M935.59,218,932,213.89c-1.75-2-3.51-4-5.31-5.93-1.36-1.49-2.71-3-4.1-4.46q-1.14-1.25-2.34-2.49c-.15-.18-.32-.37-.48-.53-1.39-1.48-2.8-2.94-4.21-4.39q-2.82-2.93-5.69-5.8t-5.8-5.69c-1.45-1.41-2.91-2.82-4.39-4.21-.16-.16-.35-.33-.53-.48q-1.25-1.2-2.49-2.34c-1.47-1.39-3-2.74-4.46-4.1-2-1.8-3.94-3.56-5.93-5.31l-4.08-3.55c-89.6-77.12-202.58-119.17-322-119.17-132.11,0-256.3,51.44-349.71,144.85S65.64,407.89,65.64,540c0,119.45,42.05,232.43,119.17,322l3.55,4.08c1.75,2,3.51,4,5.31,5.93,1.36,1.49,2.71,3,4.1,4.46q1.14,1.25,2.34,2.49c.15.18.32.37.48.53,1.39,1.48,2.8,2.94,4.21,4.39q2.82,2.93,5.69,5.8t5.8,5.69c1.45,1.41,2.91,2.82,4.39,4.21.16.16.35.33.53.48q1.24,1.2,2.49,2.34c1.47,1.39,3,2.74,4.46,4.1,2,1.8,3.94,3.56,5.93,5.31l4.08,3.55c89.6,77.12,202.58,119.17,322,119.17,132.11,0,256.3-51.44,349.71-144.85S1054.76,672.11,1054.76,540C1054.76,420.55,1012.71,307.57,935.59,218ZM554.35,959.07a417.23,417.23,0,0,1-262.5-97.37c-1.6-1.34-3.2-2.7-4.78-4.06l-.15-.12c-1.89-1.63-3.74-3.26-5.6-4.92l-.36-.31c-1.69-1.51-3.37-3-5-4.56q-3.39-3.15-6.69-6.34c-1.77-1.69-3.54-3.42-5.27-5.16s-3.47-3.5-5.16-5.27q-3.19-3.3-6.34-6.69c-1.52-1.66-3.05-3.34-4.56-5l-.31-.36c-1.66-1.86-3.29-3.71-4.92-5.6a.88.88,0,0,0-.12-.15c-1.36-1.59-2.72-3.18-4.06-4.78a417.26,417.26,0,0,1-97.42-268.74c.21-228.42,190.31-418.52,418.73-418.73A417.26,417.26,0,0,1,828.55,218.3c1.6,1.34,3.19,2.7,4.78,4.06l.15.12c1.89,1.63,3.74,3.26,5.6,4.92l.36.31c1.69,1.51,3.37,3,5,4.56q3.39,3.15,6.69,6.34c1.77,1.69,3.54,3.42,5.27,5.16s3.47,3.5,5.16,5.27q3.2,3.3,6.34,6.69c1.52,1.66,3.05,3.34,4.56,5l.31.36c1.66,1.86,3.29,3.71,4.92,5.6a.88.88,0,0,0,.12.15c1.36,1.58,2.72,3.18,4.06,4.78a417.23,417.23,0,0,1,97.37,262.5C982.52,769.36,789.56,962.32,554.35,959.07Z" transform="translate(-65.64 -45.44)"/><path class="bfa78376-a4ad-456d-b6c9-b6b39ec13357" d="M201.8,953.26l-54.24,54.25a37.09,37.09,0,0,1-52.45,0l-.91-.91a37.09,37.09,0,0,1,0-52.45l54.25-54.24a37.15,37.15,0,0,1,52.6.18l.28.28.28.28A37.15,37.15,0,0,1,201.8,953.26ZM847.53,254.71l-.53-.53a37.56,37.56,0,0,0-53,.21L276.1,772.25a37.56,37.56,0,0,0-.21,53l.53.53a37.56,37.56,0,0,0,53-.21L847.32,307.75A37.57,37.57,0,0,0,847.53,254.71ZM1029.22,73.4l-.91-.91a37.09,37.09,0,0,0-52.45,0l-54.24,54.25a37.15,37.15,0,0,0,.18,52.6l.56.56a37.15,37.15,0,0,0,52.61.19l54.25-54.24A37.09,37.09,0,0,0,1029.22,73.4Z" transform="translate(-65.64 -45.44)"/></svg>